Coordinates
version=1
nRows=43
nColumns=12
inDegrees=yes

Units are S.I. units (second, meters, Newtons, ...)
Angles are in degrees

endheader
time	SC_y	SC_z	SC_x	AC_y	AC_z	AC_x	GH_y	GH_z	GH_yy	EL_x	PS_y
       0.0              -16.77           19.9          2.115          39.16         -18.99          14.43          41.15          33.47          -90.4          104.8          51.67
   0.04789              -16.77           19.9          2.116          39.17         -18.99          14.43          41.14          33.47         -90.37          104.8          51.67
   0.09579              -16.78           19.9          2.117          39.17         -18.99          14.42          41.13          33.48         -90.34          104.8          51.67
    0.1437              -16.78          19.89          2.118          39.17         -18.99          14.42          41.12          33.48         -90.31          104.8          51.67
    0.1916              -16.79          19.89          2.119          39.18         -18.99          14.42           41.1          33.49         -90.27          104.8          51.67
    0.2395              -16.79          19.89           2.12          39.18         -18.99          14.41          41.09          33.49         -90.23          104.8          51.67
    0.2874               -16.8          19.88          2.121          39.18         -18.99          14.41          41.08           33.5         -90.19          104.8          51.67
    0.3353              -16.81          19.88          2.122          39.19         -18.99          14.41          41.06           33.5         -90.15          104.8          51.67
    0.3832              -16.82          19.87          2.124          39.19         -18.99           14.4          41.04          33.51          -90.1          104.8          51.67
    0.4311              -16.82          19.87          2.125           39.2         -18.99           14.4          41.03          33.51         -90.05          104.7          51.67
    0.4789              -16.83          19.86          2.127           39.2         -18.98          14.39          41.01          33.52          -90.0          104.7          51.67
    0.5268              -16.84          19.86          2.128          39.21         -18.98          14.39          40.99          33.53         -89.94          104.7          51.67
    0.5747              -16.85          19.85           2.13          39.22         -18.98          14.38          40.96          33.53         -89.88          104.7          51.67
    0.6226              -16.86          19.85          2.132          39.22         -18.98          14.37          40.94          33.54         -89.82          104.7          51.67
    0.6705              -16.87          19.84          2.134          39.23         -18.98          14.37          40.91          33.55         -89.75          104.7          51.67
    0.7184              -16.89          19.83          2.137          39.24         -18.98          14.36          40.88          33.56         -89.67          104.7          51.67
    0.7663               -16.9          19.82          2.139          39.25         -18.98          14.35          40.85          33.57         -89.58          104.7          51.67
    0.8142              -16.92          19.81          2.142          39.26         -18.97          14.34          40.82          33.58         -89.49          104.6          51.67
    0.8621              -16.93           19.8          2.145          39.27         -18.97          14.33          40.78          33.59         -89.39          104.6          51.66
      0.91              -16.95          19.79          2.148          39.28         -18.97          14.32          40.74          33.61         -89.28          104.6          51.66
    0.9579              -16.97          19.78          2.152          39.29         -18.97          14.31           40.7          33.62         -89.16          104.6          51.66
     1.006              -16.99          19.77          2.156          39.31         -18.96           14.3          40.65          33.64         -89.03          104.6          51.66
     1.054              -17.02          19.76           2.16          39.32         -18.96          14.29           40.6          33.66         -88.88          104.5          51.66
     1.102              -17.05          19.74          2.165          39.34         -18.96          14.27          40.54          33.68         -88.72          104.5          51.66
     1.149              -17.08          19.72           2.17          39.36         -18.95          14.25          40.47           33.7         -88.54          104.5          51.66
     1.197              -17.11           19.7          2.176          39.38         -18.95          14.23           40.4          33.72         -88.33          104.4          51.65
     1.245              -17.15          19.68          2.183           39.4         -18.94          14.21          40.31          33.75         -88.11          104.4          51.65
     1.293              -17.19          19.66           2.19          39.43         -18.94          14.19          40.22          33.78         -87.85          104.3          51.65
     1.341              -17.24          19.63          2.199          39.46         -18.93          14.16          40.11          33.82         -87.56          104.3          51.65
     1.389              -17.29           19.6          2.209          39.49         -18.93          14.13          39.99          33.86         -87.24          104.2          51.64
     1.437              -17.35          19.56           2.22          39.53         -18.92           14.1          39.86           33.9         -86.86          104.1          51.64
     1.485              -17.42          19.52          2.232          39.58         -18.91          14.06           39.7          33.96         -86.44          104.1          51.64
     1.533               -17.5          19.47          2.247          39.63          -18.9          14.01          39.52          34.02         -85.94          104.0          51.63
     1.581               -17.6          19.41          2.264          39.69         -18.89          13.95          39.31          34.09         -85.37          103.9          51.63
     1.628              -17.71          19.35          2.284          39.76         -18.87          13.89          39.06          34.17          -84.7          103.7          51.62
     1.676              -17.84          19.27          2.307          39.84         -18.86          13.82          38.77          34.27          -83.9          103.6          51.61
     1.724               -18.0          19.18          2.335          39.94         -18.84          13.73          38.43          34.38         -82.96          103.4           51.6
     1.772              -18.19          19.07          2.369          40.06         -18.81          13.62          38.02          34.52         -81.84          103.2          51.59
      1.82              -18.41          18.94          2.409           40.2         -18.79          13.49          37.52          34.69         -80.47          102.9          51.58
     1.868              -18.69          18.78          2.459          40.37         -18.75          13.33          36.91          34.89          -78.8          102.6          51.57
     1.916              -19.03          18.58           2.52          40.59         -18.71          13.14          36.15          35.14         -76.75          102.2          51.55
     1.964              -19.45          18.33          2.596          40.86         -18.65           12.9          35.22          35.46         -74.18          101.8          51.52
     2.012              -19.99          18.01          2.692          41.19         -18.59          12.59          34.03          35.85         -70.95          101.2          51.49
